
PLOT

Dracula is alive. In fact, he plans to rule the world and that is why he seeks the help of other legendary
monsters...
 
http://www.imdb.com/media/rm881365760/tt0093560

Encoded By .......: BigPerm
Runtime ..........: 1h 22mn
File Size ........: 718 MB
Resolution .......: 640x 256
IMDb URL .........: http://www.imdb.com/title/tt0093560/
Source ...........: DVD
Genre ............: Action,Comedy,Family
Language .........: English
Subtitles ........: None
Video
ID : 0
Format : MPEG-4 Visual
Format profile : Advanced Simple@L5
Format settings, BVOP : Yes
Format settings, QPel : No
Format settings, GMC : No warppoints
Format settings, Matrix : Default (H.263)
Muxing mode : Packed bitstream
Codec ID : XVID
Codec ID/Hint : XviD
Duration : 1h 22mn
Bit rate : 987 Kbps
Width : 640 pixels
Height : 256 pixels
Display aspect ratio : 2.500
Frame rate : 29.970 fps
Color space : YUV
Chroma subsampling : 4:2:0
Bit depth : 8 bits
Scan type : Progressive
Compression mode : Lossy
Bits/(Pixel*Frame) : 0.201
Stream size : 580 MiB (81%)
Writing library : XviD 64
Audio
ID : 1
Format : AC-3
Format/Info : Audio Coding 3
Mode extension : CM (complete main)
Codec ID : 2000
Duration : 1h 22mn
Bit rate mode : Constant
Bit rate : 224 Kbps
Channel(s) : 2 channels
Channel positions : Front: L R
Sampling rate : 48.0 KHz
Bit depth : 16 bits
Compression mode : Lossy
Stream size : 132 MiB (18%)
Alignment : Split accross interleaves
Interleave, duration : 33 ms (1.00 video frame)
Interleave, preload duration : 500 ms